<?xml version="1.0" encoding="UTF-8"?>
<svg version="1.1" xmlns="http://www.w3.org/2000/svg" width="1024" height="1024">
<path d="M0 0 C2.38843147 0.07143296 4.77686202 0.12522657 7.16577148 0.17797852 C8.71072258 0.22055091 10.25564625 0.26413304 11.80053711 0.30883789 C12.5016713 0.32352615 13.20280548 0.33821442 13.92518616 0.35334778 C18.49652768 0.51127467 22.44502035 1.38993915 26.79663086 2.75805664 C29.39985225 3.26490199 31.99658431 3.74572886 34.60913086 4.19555664 C40.11481733 5.17515055 45.386352 6.3726137 50.68334961 8.20727539 C53.11820697 8.84186853 55.2909681 8.85020886 57.79663086 8.75805664 C58.12663086 9.41805664 58.45663086 10.07805664 58.79663086 10.75805664 C60.5347548 11.63968674 60.5347548 11.63968674 62.67163086 12.38696289 C63.4835791 12.6948877 64.29552734 13.0028125 65.13208008 13.32006836 C66.01138184 13.65022949 66.89068359 13.98039063 67.79663086 14.32055664 C83.15170873 20.29731411 96.69038254 27.79463317 109.79663086 37.75805664 C110.58038086 38.34071289 111.36413086 38.92336914 112.17163086 39.52368164 C114.41851262 41.22536415 116.61180627 42.97729945 118.79663086 44.75805664 C119.29598145 45.16185547 119.79533203 45.5656543 120.30981445 45.98168945 C141.19188057 62.9757108 157.41788978 83.47227312 170.79663086 106.75805664 C171.26584961 107.57016602 171.73506836 108.38227539 172.21850586 109.21899414 C172.67741211 110.02594727 173.13631836 110.83290039 173.60913086 111.66430664 C174.02807617 112.3997168 174.44702148 113.13512695 174.87866211 113.89282227 C175.79663086 115.75805664 175.79663086 115.75805664 175.79663086 117.75805664 C176.45663086 118.08805664 177.11663086 118.41805664 177.79663086 118.75805664 C178.73876953 120.46606445 178.73876953 120.46606445 179.71459961 122.71118164 C180.0784375 123.54705811 180.44227539 124.38293457 180.81713867 125.24414062 C181.3947998 126.61227905 181.3947998 126.61227905 181.98413086 128.00805664 C182.38341797 128.95173096 182.78270508 129.89540527 183.1940918 130.86767578 C191.56951089 150.99909513 197.60334921 171.84138486 200.43725586 193.49243164 C200.68403443 195.78417102 200.68403443 195.78417102 201.79663086 197.75805664 C201.90689361 199.30457031 201.9557334 200.85566976 201.97363281 202.40600586 C201.98628174 203.37754105 201.99893066 204.34907623 202.01196289 205.35005188 C202.01953613 206.41024033 202.02710938 207.47042877 202.03491211 208.56274414 C202.04466064 209.66124191 202.05440918 210.75973969 202.06445312 211.89152527 C202.38592841 257.56130927 202.38592841 257.56130927 197.79663086 278.75805664 C197.61471191 279.64960449 197.43279297 280.54115234 197.24536133 281.4597168 C193.22062861 300.83526207 186.21573089 319.38297457 176.79663086 336.75805664 C176.45019531 337.41467285 176.10375977 338.07128906 175.74682617 338.74780273 C170.2799348 349.10388562 163.96668516 358.50807566 156.79663086 367.75805664 C156.11858398 368.63848633 155.44053711 369.51891602 154.74194336 370.42602539 C146.15796224 381.34299723 136.92897825 391.71315371 127.46850586 401.87133789 C124.79572216 404.75903841 122.20282838 407.70101572 119.62866211 410.67602539 C117.26413109 413.36322162 114.84446371 415.99857213 112.42163086 418.63305664 C105.74756611 425.89094526 99.13751878 433.19985876 92.66772461 440.64086914 C90.45180127 443.1482396 88.18622178 445.60707253 85.92163086 448.07055664 C82.55937009 451.74818832 79.35006229 455.49493976 76.23413086 459.38305664 C72.70008695 463.76477246 68.93183967 467.72783563 64.90600586 471.65649414 C62.38015008 474.17299489 60.06291966 476.82338062 57.74194336 479.52758789 C55.30939086 482.31671937 52.80468579 485.0370816 50.29663086 487.75805664 C42.59587351 495.89462585 42.59587351 495.89462585 35.79663086 504.75805664 C35.13663086 504.75805664 34.47663086 504.75805664 33.79663086 504.75805664 C33.56975586 505.29430664 33.34288086 505.83055664 33.10913086 506.38305664 C31.34092997 509.58265825 29.25992883 512.04842887 26.79663086 514.75805664 C26.13663086 514.75805664 25.47663086 514.75805664 24.79663086 514.75805664 C24.48918945 515.5450293 24.48918945 515.5450293 24.17553711 516.34790039 C22.19156058 519.81564407 19.49165736 522.45077339 16.73413086 525.32055664 C11.82809921 530.502307 7.24303282 535.79804033 2.78100586 541.36743164 C0.49171153 544.1254004 -1.96670772 546.6114369 -4.53930664 549.10180664 C-6.88954494 551.44101095 -9.02345963 553.94690034 -11.18774414 556.45727539 C-13.64817263 559.26578775 -16.17315492 562.01264158 -18.70336914 564.75805664 C-22.35214909 568.72125928 -25.95218575 572.71857084 -29.48071289 576.78930664 C-31.4249605 579.01130391 -33.40673878 581.19660887 -35.39086914 583.38305664 C-38.45389619 586.77204772 -41.44947175 590.20683324 -44.40307617 593.69067383 C-49.87782083 600.14824924 -55.5292393 606.39773142 -61.33178711 612.56225586 C-64.82558221 616.27484047 -68.2524559 620.02570089 -71.58227539 623.88696289 C-76.37432534 629.41802778 -81.32404464 634.81152787 -86.29882812 640.17797852 C-90.31318641 644.51541136 -94.18606109 648.89777055 -97.89086914 653.50805664 C-101.15255708 657.56045681 -104.58227776 661.24768081 -108.30883789 664.87133789 C-110.79580579 667.34805025 -113.07391214 669.97482085 -115.36352539 672.63305664 C-118.16074854 675.86381969 -121.03155588 679.02722812 -123.89477539 682.19946289 C-125.38456195 683.85057997 -126.87173791 685.50405808 -128.35571289 687.16040039 C-133.15386147 692.51385007 -138.00956905 697.80987529 -142.90185547 703.07714844 C-145.57201057 705.95975557 -148.17522879 708.873953 -150.70336914 711.88305664 C-182.85214183 748.73464739 -234.96773265 772.39674924 -283.20336914 775.75805664 C-313.98772005 777.03028101 -344.4996153 773.43183213 -373.20336914 761.75805664 C-373.80987305 761.51506836 -374.41637695 761.27208008 -375.04125977 761.02172852 C-404.06449911 749.28892963 -428.78251049 731.35055844 -451.20336914 709.75805664 C-451.99743164 709.00524414 -452.79149414 708.25243164 -453.60961914 707.47680664 C-463.59972495 697.80384705 -472.75805868 686.10885036 -480.35571289 674.45727539 C-482.18575243 671.78379269 -483.20595284 670.82856246 -486.20336914 669.75805664 C-485.87336914 668.76805664 -485.54336914 667.77805664 -485.20336914 666.75805664 C-486.5603095 663.72637877 -486.5603095 663.72637877 -488.51586914 660.57055664 C-489.15137695 659.48387695 -489.78688477 658.39719727 -490.44165039 657.27758789 C-491.31370117 656.03041992 -491.31370117 656.03041992 -492.20336914 654.75805664 C-492.86336914 654.75805664 -493.52336914 654.75805664 -494.20336914 654.75805664 C-494.32711914 653.27305664 -494.32711914 653.27305664 -494.45336914 651.75805664 C-495.19428429 646.48574738 -497.43172009 641.52970569 -501.20336914 637.75805664 C-500.87336914 636.76805664 -500.54336914 635.77805664 -500.20336914 634.75805664 C-500.86336914 634.42805664 -501.52336914 634.09805664 -502.20336914 633.75805664 C-503.05493164 631.47290039 -503.05493164 631.47290039 -503.82836914 628.69555664 C-504.08875977 627.77645508 -504.34915039 626.85735352 -504.61743164 625.91040039 C-504.81079102 625.20012695 -505.00415039 624.48985352 -505.20336914 623.75805664 C-505.86336914 623.75805664 -506.52336914 623.75805664 -507.20336914 623.75805664 C-508.32836914 620.00805664 -508.32836914 620.00805664 -507.20336914 617.75805664 C-507.60377777 615.77984953 -508.09871932 613.82047531 -508.63696289 611.87524414 C-508.95600586 610.70864258 -509.27504883 609.54204102 -509.60375977 608.34008789 C-509.94600586 607.11676758 -510.28825195 605.89344727 -510.64086914 604.63305664 C-510.97924805 603.40200195 -511.31762695 602.17094727 -511.66625977 600.90258789 C-512.50559969 597.8525921 -513.35156508 594.80459057 -514.20336914 591.75805664 C-514.86336914 591.75805664 -515.52336914 591.75805664 -516.20336914 591.75805664 C-516.20336914 587.13805664 -516.20336914 582.51805664 -516.20336914 577.75805664 C-516.86336914 577.42805664 -517.52336914 577.09805664 -518.20336914 576.75805664 C-518.85445634 528.41733652 -518.85445634 528.41733652 -515.20336914 507.75805664 C-515.04239746 506.84507812 -514.88142578 505.93209961 -514.71557617 504.99145508 C-504.87409094 451.91739353 -476.78027491 410.03110089 -440.67797852 371.34155273 C-438.23709221 368.7204288 -435.81301591 366.0839891 -433.39086914 363.44555664 C-432.55942383 362.54192383 -431.72797852 361.63829102 -430.87133789 360.70727539 C-428.84668333 358.46918726 -426.8563126 356.21319868 -424.87915039 353.93383789 C-420.4512447 348.85715481 -415.80527502 343.99454386 -411.16430664 339.11352539 C-407.2837233 335.01568931 -403.50053427 330.85677599 -399.80249023 326.59350586 C-397.58305507 324.04606867 -395.30348739 321.55678981 -393.01586914 319.07055664 C-392.56026611 318.57434814 -392.10466309 318.07813965 -391.63525391 317.56689453 C-389.06549791 314.77053634 -386.48550713 311.98394165 -383.89868164 309.20336914 C-383.35493896 308.61773193 -382.81119629 308.03209473 -382.25097656 307.42871094 C-381.19832802 306.29561738 -380.14387568 305.1641962 -379.08740234 304.03466797 C-376.90742387 301.68736578 -374.98519925 299.43080181 -373.20336914 296.75805664 C-372.54336914 296.75805664 -371.88336914 296.75805664 -371.20336914 296.75805664 C-370.80698242 295.86860352 -370.80698242 295.86860352 -370.40258789 294.96118164 C-369.15966489 292.6777661 -367.89935268 291.28378941 -366.01586914 289.50805664 C-363.56738658 287.12981744 -361.24265861 284.72006205 -359.01586914 282.13305664 C-355.82511069 278.43091253 -352.52767818 274.83969523 -349.20336914 271.25805664 C-345.41435389 267.17253498 -341.68164378 263.05411613 -338.03540039 258.84008789 C-335.20267959 255.62081244 -332.29178429 252.47350952 -329.38842773 249.31811523 C-326.49354812 246.17039046 -323.61960542 243.00576138 -320.76586914 239.82055664 C-317.24020155 235.88978541 -313.66719903 232.00597449 -310.07836914 228.13305664 C-306.2928618 224.04565215 -302.55605296 219.92843332 -298.91040039 215.71508789 C-296.86703484 213.37246514 -294.78656055 211.06532242 -292.70336914 208.75805664 C-290.01353483 205.77742943 -287.3402655 202.78560431 -284.70336914 199.75805664 C-281.31083821 195.86292853 -277.85142714 192.03022901 -274.39086914 188.19555664 C-271.90275227 185.42308356 -269.4526945 182.61960815 -267.00805664 179.80883789 C-264.97378773 177.49716867 -262.90114604 175.22274234 -260.82836914 172.94555664 C-257.64577126 169.42794846 -254.61218952 165.83058613 -251.64086914 162.13305664 C-248.33389362 158.04390952 -244.86522294 154.30806931 -241.09790039 150.64477539 C-238.61350783 148.17062775 -236.33744128 145.54706983 -234.05102539 142.89086914 C-231.96620364 140.48428843 -229.83815382 138.12040719 -227.70336914 135.75805664 C-225.11020896 132.88690274 -222.54041576 130.00208307 -220.01586914 127.07055664 C-215.94944471 122.39464471 -211.69064596 117.89693365 -207.44091797 113.38818359 C-204.48006982 110.23762816 -201.57053446 107.05698777 -198.73461914 103.79321289 C-195.15106673 99.67072779 -191.44599493 95.67354343 -187.70336914 91.69555664 C-186.76557617 90.69298828 -186.76557617 90.69298828 -185.80883789 89.67016602 C-182.20315327 85.82932805 -178.54090801 82.06181432 -174.78222656 78.37036133 C-173.11232002 76.66507869 -171.56049714 74.88953952 -170.01586914 73.07055664 C-162.68996541 64.61380871 -154.72993918 56.90623747 -145.96118164 49.96118164 C-144.09177233 48.4677725 -142.25351681 46.9346719 -140.44555664 45.36743164 C-124.45451117 31.51143039 -106.28810843 21.76914111 -86.69750977 14.01489258 C-83.62281533 12.79470582 -80.9682554 11.60131415 -78.20336914 9.75805664 C-76.24853516 9.18945312 -76.24853516 9.18945312 -74.20336914 8.75805664 C-72.97489258 8.4602832 -71.74641602 8.16250977 -70.48071289 7.85571289 C-62.4223967 5.92684578 -54.3847514 4.10100492 -46.20336914 2.75805664 C-46.20336914 2.09805664 -46.20336914 1.43805664 -46.20336914 0.75805664 C-45.37836914 0.7696582 -44.55336914 0.78125977 -43.70336914 0.79321289 C-37.37769388 0.84263223 -31.1718152 0.72347944 -24.86352539 0.23461914 C-16.55863196 -0.33915606 -8.31635578 -0.25574116 0 0 Z M-139.11962891 91.39306641 C-141.15593553 93.46085597 -143.20301932 95.5174819 -145.25219727 97.57250977 C-146.5789987 98.90847336 -147.90519268 100.24504058 -149.23071289 101.58227539 C-149.82875229 102.18456467 -150.42679169 102.78685394 -151.04295349 103.40739441 C-154.7247629 107.15073016 -158.22566355 111.01409324 -161.66218567 114.98353577 C-163.34985671 116.92672264 -165.08276493 118.81843718 -166.85180664 120.68774414 C-167.46000244 121.33267822 -168.06819824 121.9776123 -168.69482422 122.64208984 C-169.31639404 123.29910889 -169.93796387 123.95612793 -170.57836914 124.63305664 C-175.47678832 129.83421074 -180.33255208 135.0638266 -185.09008789 140.39477539 C-187.48551241 143.0735773 -189.90617341 145.72844633 -192.32836914 148.38305664 C-195.71761906 152.10601732 -199.05771667 155.8640038 -202.35961914 159.66430664 C-205.459755 163.1847999 -208.63606467 166.63607222 -211.79711914 170.10180664 C-213.78985868 172.30158405 -215.75675055 174.51760882 -217.70336914 176.75805664 C-220.49151012 179.96704908 -223.33865099 183.11722108 -226.20336914 186.25805664 C-229.65665067 190.04468662 -233.06435965 193.86281984 -236.42602539 197.73071289 C-239.2564853 200.95930342 -242.14298121 204.13718839 -245.01977539 207.32446289 C-246.91185599 209.4331681 -248.78242672 211.55725465 -250.64086914 213.69555664 C-254.28607516 217.88204615 -258.03186995 221.97439263 -261.77368164 226.07446289 C-264.46918669 229.05165255 -267.11220163 232.06912438 -269.72680664 235.11743164 C-271.20336914 236.75805664 -271.20336914 236.75805664 -273.70336914 238.94555664 C-275.53229315 240.72210524 -275.53229315 240.72210524 -274.95336914 243.50805664 C-274.58211914 244.62180664 -274.58211914 244.62180664 -274.20336914 245.75805664 C-273.54336914 245.75805664 -272.88336914 245.75805664 -272.20336914 245.75805664 C-272.20336914 246.41805664 -272.20336914 247.07805664 -272.20336914 247.75805664 C-270.69257099 249.29087641 -270.69257099 249.29087641 -268.71458721 250.87935448 C-264.26973571 254.66237104 -260.14108517 258.68334713 -256.02388 262.81729126 C-255.24061393 263.59970291 -254.45734786 264.38211455 -253.65034646 265.18823564 C-251.04495595 267.79198838 -248.4431389 270.39928185 -245.84130859 273.0065918 C-243.96670622 274.88147645 -242.0919062 276.75616148 -240.21685791 278.63059998 C-236.18891386 282.65802139 -232.16279511 286.68725996 -228.13793373 290.71776199 C-222.31332809 296.5505246 -216.48593474 302.38049559 -210.65787604 308.20980768 C-201.19346104 317.67640793 -191.73127781 327.14523562 -182.27050781 336.61547852 C-173.09654778 345.79861462 -163.92154084 354.98070264 -154.74511719 364.16137695 C-153.89673616 365.01015207 -153.89673616 365.01015207 -153.03121612 365.87607415 C-150.1928966 368.71569905 -147.35455627 371.55530315 -144.51620543 374.39489675 C-124.96113936 393.95856698 -105.40828665 413.52444717 -85.85771179 433.09260559 C-85.03388242 433.91717455 -84.21005306 434.74174351 -83.36125916 435.59129941 C-81.84434052 437.10959271 -80.32743438 438.62789848 -78.81054384 440.14621985 C-75.27566737 443.68434828 -71.74021767 447.22189954 -68.20336914 450.75805664 C-62.20336914 456.75805664 -56.20336914 462.75805664 -50.20336914 468.75805664 C-46.02665601 466.36917941 -42.99517272 463.65840624 -39.82836914 460.07055664 C-39.34432617 459.53237305 -38.8602832 458.99418945 -38.36157227 458.43969727 C-35.23247037 454.95131264 -32.14744853 451.42430209 -29.07836914 447.88305664 C-26.18485905 444.60374521 -23.21248555 441.39698952 -20.25024414 438.17993164 C-17.69781771 435.40311607 -15.17353626 432.60824947 -12.70336914 429.75805664 C-9.76491833 426.36753647 -6.74180286 423.05876808 -3.70336914 419.75805664 C1.101783 414.5297568 1.101783 414.5297568 5.85913086 409.25805664 C6.38635742 408.67024414 6.91358398 408.08243164 7.45678711 407.47680664 C8.87130067 405.79182654 8.87130067 405.79182654 9.75366211 403.73071289 C11.31330187 400.78083244 13.72868508 399.22870064 16.33569336 397.22290039 C18.1497119 395.74883847 18.1497119 395.74883847 17.79663086 392.75805664 C18.3814624 392.5029834 18.96629395 392.24791016 19.56884766 391.98510742 C22.02457059 390.63250869 23.53593093 389.17539167 25.44116211 387.12524414 C26.11856445 386.40079102 26.7959668 385.67633789 27.49389648 384.92993164 C28.19192383 384.17196289 28.88995117 383.41399414 29.60913086 382.63305664 C30.29555664 381.89829102 30.98198242 381.16352539 31.68920898 380.40649414 C35.58894132 376.21529648 39.39554648 371.95417899 43.15087891 367.63354492 C45.64526402 364.79095978 48.21828801 362.02431913 50.79663086 359.25805664 C54.62564631 355.1303531 58.40525583 350.97314944 62.08959961 346.71508789 C64.13296516 344.37246514 66.21343945 342.06532242 68.29663086 339.75805664 C72.17177596 335.45957636 76.00607633 331.13120613 79.79663086 326.75805664 C80.23910156 326.25258301 80.68157227 325.74710937 81.13745117 325.22631836 C87.75635275 317.66154735 94.09047483 310.04876569 99.79663086 301.75805664 C100.18560547 301.20037598 100.57458008 300.64269531 100.9753418 300.06811523 C109.58306046 287.69409968 116.99719776 275.2660664 121.69116211 260.87915039 C122.79663086 257.75805664 122.79663086 257.75805664 124.26928711 254.95336914 C126.24650216 250.81689366 127.31035142 246.63038478 128.42163086 242.19555664 C128.74647461 240.9396875 128.74647461 240.9396875 129.07788086 239.65844727 C130.09110458 235.7087511 131.0601373 231.7700084 131.79663086 227.75805664 C132.15241211 225.86313477 132.15241211 225.86313477 132.51538086 223.92993164 C135.81897589 205.52269349 136.53341699 187.27685139 134.92163086 168.63305664 C134.84299805 167.62629883 134.76436523 166.61954102 134.68334961 165.58227539 C133.90169239 156.28656724 132.1048835 147.40306611 129.60522461 138.42993164 C129.38286133 137.63071289 129.16049805 136.83149414 128.93139648 136.00805664 C128.58625 134.77055664 128.58625 134.77055664 128.23413086 133.50805664 C128.00016602 132.66758789 127.76620117 131.82711914 127.52514648 130.96118164 C126.94944148 128.89334327 126.37309857 126.82568252 125.79663086 124.75805664 C125.13663086 125.08805664 124.47663086 125.41805664 123.79663086 125.75805664 C123.98990967 125.18095947 124.18318848 124.6038623 124.38232422 124.00927734 C124.87366893 121.33945435 124.47991024 120.21379324 123.42553711 117.73852539 C123.10262695 116.97096924 122.7797168 116.20341309 122.44702148 115.41259766 C122.08801758 114.59847412 121.72901367 113.78435059 121.35913086 112.94555664 C120.99368164 112.10114014 120.62823242 111.25672363 120.25170898 110.38671875 C105.35228586 76.50203155 84.33661783 58.66328833 50.37866211 44.93774414 C39.81261492 40.87074758 28.94271569 38.60038471 17.79663086 36.75805664 C17.09151367 36.63946289 16.38639648 36.52086914 15.65991211 36.39868164 C-42.59750521 26.93325987 -98.62738965 50.27067437 -139.11962891 91.39306641 Z M-395.39086914 476.69555664 C-400.92044301 482.45552942 -407.59491274 489.44248586 -408.20336914 497.75805664 C-407.37357206 500.66883908 -407.37357206 500.66883908 -405.20336914 502.75805664 C-401.81742873 503.39939385 -401.81742873 503.39939385 -398.20336914 502.75805664 C-395.5494837 500.44981916 -395.5494837 500.44981916 -393.51586914 497.25805664 C-392.94570068 496.43809204 -392.94570068 496.43809204 -392.36401367 495.6015625 C-387.1827875 488.36552106 -387.1827875 488.36552106 -385.14086914 479.94555664 C-386.57816633 476.98641536 -388.26027882 476.12192777 -391.20336914 474.75805664 C-393.44086765 474.53704489 -393.44086765 474.53704489 -395.39086914 476.69555664 Z M-416.64086914 524.13305664 C-420.60949516 526.64974631 -421.12164748 530.3258212 -422.20336914 534.75805664 C-422.67971892 538.09150082 -422.85162201 541.39410128 -422.95336914 544.75805664 C-422.98648193 545.67449951 -423.01959473 546.59094238 -423.05371094 547.53515625 C-423.5655896 564.82944968 -423.51039101 587.54125282 -414.20336914 602.75805664 C-411.36579114 605.10819822 -411.36579114 605.10819822 -408.07836914 604.44555664 C-405.32250492 604.05161343 -405.32250492 604.05161343 -404.20336914 602.75805664 C-403.65856511 597.31001629 -404.59231302 592.96028333 -406.07836914 587.69555664 C-411.51234709 568.28643435 -411.385401 547.70806218 -409.20336914 527.75805664 C-410.85336914 527.42805664 -412.50336914 527.09805664 -414.20336914 526.75805664 C-413.54336914 526.09805664 -412.88336914 525.43805664 -412.20336914 524.75805664 C-414.20266079 523.51757026 -414.20266079 523.51757026 -416.64086914 524.13305664 Z M-515.20336914 584.75805664 C-515.20336914 586.40805664 -515.20336914 588.05805664 -515.20336914 589.75805664 C-514.87336914 589.75805664 -514.54336914 589.75805664 -514.20336914 589.75805664 C-514.20336914 588.10805664 -514.20336914 586.45805664 -514.20336914 584.75805664 C-514.53336914 584.75805664 -514.86336914 584.75805664 -515.20336914 584.75805664 Z M-396.20336914 625.75805664 C-397.91228204 627.33682474 -397.91228204 627.33682474 -399.20336914 629.75805664 C-398.76775045 638.75730124 -393.0935745 644.07159362 -386.81665039 650.01977539 C-383.47229019 652.81904462 -381.15855221 654.58117089 -376.82836914 655.38305664 C-373.91530939 654.68947099 -372.87518459 654.22178468 -371.20336914 651.75805664 C-370.28908575 649.85096822 -370.28908575 649.85096822 -370.20336914 647.75805664 C-371.06127097 645.540346 -371.06127097 645.540346 -372.20336914 643.75805664 C-372.86336914 643.75805664 -373.52336914 643.75805664 -374.20336914 643.75805664 C-374.20336914 643.09805664 -374.20336914 642.43805664 -374.20336914 641.75805664 C-375.75720061 640.22568113 -375.75720061 640.22568113 -377.76586914 638.63305664 C-380.81048669 636.08158137 -383.30277665 633.49550987 -385.76586914 630.38305664 C-388.08841197 627.61098939 -389.51792223 626.26730621 -393.14086914 625.75805664 C-394.15149414 625.75805664 -395.16211914 625.75805664 -396.20336914 625.75805664 Z " fill="#CBB58D" transform="translate(670.203369140625,119.241943359375)"/>
<path d="M0 0 C6.26524351 5.18092644 11.99872708 10.83504157 17.74609375 16.578125 C18.76734888 17.59616148 19.78867683 18.61412492 20.81007385 19.63201904 C22.93561763 21.75161317 25.05912351 23.87322495 27.18139648 25.99609375 C29.90568397 28.72048368 32.63683606 31.4378811 35.36971951 34.15364456 C37.47398657 36.24682952 39.57372989 38.34450663 41.67219734 40.44350433 C42.67815086 41.44827595 43.68573054 42.45142217 44.69494438 43.45291901 C46.09748508 44.84571874 47.49314031 46.24544192 48.88842773 47.64550781 C50.08253517 48.83747772 50.08253517 48.83747772 51.30076599 50.05352783 C53 52 53 52 53 54 C53.57895523 54.2412561 54.15791046 54.48251221 54.75440979 54.7310791 C57.43440728 56.24547154 58.93219657 57.96061019 60.92944336 60.30273438 C66.15205741 66.24817051 71.70233187 71.80233432 77.32254219 77.36714172 C79.17017506 79.19712457 81.01401904 81.03085149 82.85691833 82.86560059 C88.08885644 88.07328557 93.32670772 93.27499519 98.56860352 98.47265625 C101.7926876 101.67004585 105.01195373 104.87222027 108.22825432 108.07743835 C109.45164286 109.29461043 110.67692662 110.50988063 111.90411568 111.72322083 C113.60799948 113.40800658 115.30574287 115.09875413 117.00219727 116.79101562 C117.51169922 117.29175598 118.02120117 117.79249634 118.54614258 118.30841064 C122 121.77209903 122 121.77209903 122 124 C122.99 124.33 123.98 124.66 125 125 C126.48969364 126.50914001 126.48969364 126.50914001 128.0927887 128.46069336 C132.32149576 133.43954123 136.88873666 138.02153333 141.51538086 142.62890625 C142.44299225 143.55666367 143.37060364 144.48442108 144.32632446 145.44029236 C146.84632381 147.96057623 149.36937363 150.47778537 151.89302135 152.99441528 C154.53868837 155.63379109 157.18148545 158.27603752 159.82460022 160.91796875 C164.8195527 165.90982481 169.81704664 170.89912834 174.81547982 175.88749886 C180.51038988 181.57119506 186.20242878 187.257763 191.89423931 192.94456291 C203.59298854 204.63288606 215.2953024 216.31763348 227 228 C226.59882462 228.4675621 226.19764923 228.93512421 225.78431702 229.41685486 C225.25229172 230.03718094 224.72026642 230.65750702 224.17211914 231.29663086 C223.64719376 231.90856796 223.12226837 232.52050507 222.58143616 233.15098572 C221.13064841 234.84724595 219.6865656 236.54888453 218.24609375 238.25390625 C212.4911042 245.04424418 206.59719064 251.6671315 200.51220703 258.16357422 C197.1811878 261.72035693 193.92229519 265.32205496 190.73828125 269.01171875 C188.52743511 271.54052928 186.26403557 274.01872564 184 276.5 C180.54424587 280.28934126 177.1347711 284.11083698 173.76953125 287.98046875 C169.46130252 292.89736556 165.05313844 297.72639032 160.671875 302.578125 C157.31574095 306.29955255 153.96775821 310.02392091 150.6875 313.8125 C148.08180434 316.811166 145.40081131 319.72869599 142.69140625 322.63305664 C137.57074415 328.12324283 132.7138008 333.72732898 128.01171875 339.5859375 C125.78675659 342.25589209 123.3971419 344.63897821 120.89306641 347.04223633 C118.765166 349.24285967 116.90324962 351.5719341 115.00390625 353.97265625 C109.83555811 360.32732034 104.23865552 366.16114261 98.4375 371.9375 C97.91154236 372.46224915 97.38558472 372.98699829 96.84368896 373.52764893 C65.22831804 404.94691104 23.37486354 423.09732002 -21.375 423.375 C-67.97405633 423.08629336 -109.6487854 404.20774439 -143 372 C-143.86109375 371.19046875 -144.7221875 370.3809375 -145.609375 369.546875 C-170.32206457 345.75515523 -182.42201804 314.38162571 -183.1875 280.33203125 C-183.72322929 239.46393659 -174.54597535 199.41276077 -150 166 C-149.60345215 165.45472656 -149.2069043 164.90945313 -148.79833984 164.34765625 C-139.11203559 151.12067672 -128.04717082 139.02337808 -116.85546875 127.0703125 C-114.11809232 124.14088606 -111.4757529 121.1398225 -108.85546875 118.10546875 C-105.34422124 114.12112684 -101.71087746 110.24689654 -98.1015625 106.3515625 C-95.26288859 103.28790391 -92.44234299 100.20828687 -89.625 97.125 C-84.8518506 91.90621739 -80.02699215 86.73676746 -75.19628906 81.57128906 C-70.66959929 76.72711091 -66.18082588 71.85003943 -61.70703125 66.95703125 C-57.32791788 62.16862506 -52.91966677 57.40702925 -48.51611328 52.64111328 C-47.00905183 51.00979813 -45.5024697 49.37804191 -43.99609375 47.74609375 C-43.50125488 47.21000488 -43.00641602 46.67391602 -42.49658203 46.12158203 C-41.50135643 45.04323155 -40.50623869 43.96478153 -39.51123047 42.88623047 C-36.95205983 40.11260887 -34.39033628 37.34141558 -31.82421875 34.57421875 C-25.42392705 27.67357241 -25.42392705 27.67357241 -19.1875 20.625 C-16.51566961 17.53266361 -13.68433877 14.66295117 -10.76953125 11.80078125 C-8.21808249 9.20427379 -5.85105695 6.46038441 -3.48046875 3.69921875 C-2.36828828 2.42270555 -1.19716986 1.19716986 0 0 Z M-94.1875 204.9375 C-99.71707387 210.69747278 -106.3915436 217.68442922 -107 226 C-106.17020292 228.91078244 -106.17020292 228.91078244 -104 231 C-100.61405959 231.64133721 -100.61405959 231.64133721 -97 231 C-94.34611456 228.69176252 -94.34611456 228.69176252 -92.3125 225.5 C-91.74233154 224.6800354 -91.74233154 224.6800354 -91.16064453 223.84350586 C-85.97941836 216.60746442 -85.97941836 216.60746442 -83.9375 208.1875 C-85.37479719 205.22835872 -87.05690968 204.36387112 -90 203 C-92.23749851 202.77898825 -92.23749851 202.77898825 -94.1875 204.9375 Z M-115.4375 252.375 C-119.40612602 254.89168967 -119.91827834 258.56776456 -121 263 C-121.47634978 266.33344418 -121.64825287 269.63604464 -121.75 273 C-121.78311279 273.91644287 -121.81622559 274.83288574 -121.8503418 275.77709961 C-122.36222046 293.07139304 -122.30702187 315.78319618 -113 331 C-110.162422 333.35014158 -110.162422 333.35014158 -106.875 332.6875 C-104.11913578 332.29355679 -104.11913578 332.29355679 -103 331 C-102.45519596 325.55195965 -103.38894388 321.20222669 -104.875 315.9375 C-110.30897795 296.52837771 -110.18203186 275.95000554 -108 256 C-109.65 255.67 -111.3 255.34 -113 255 C-112.34 254.34 -111.68 253.68 -111 253 C-112.99929165 251.75951362 -112.99929165 251.75951362 -115.4375 252.375 Z M-95 354 C-96.7089129 355.5787681 -96.7089129 355.5787681 -98 358 C-97.56438131 366.9992446 -91.89020536 372.31353698 -85.61328125 378.26171875 C-82.26892105 381.06098798 -79.95518307 382.82311425 -75.625 383.625 C-72.71194025 382.93141435 -71.67181545 382.46372804 -70 380 C-69.08571661 378.09291157 -69.08571661 378.09291157 -69 376 C-69.85790183 373.78228936 -69.85790183 373.78228936 -71 372 C-71.66 372 -72.32 372 -73 372 C-73 371.34 -73 370.68 -73 370 C-74.55383147 368.46762449 -74.55383147 368.46762449 -76.5625 366.875 C-79.60711755 364.32352473 -82.09940751 361.73745323 -84.5625 358.625 C-86.88504283 355.85293275 -88.31455309 354.50924957 -91.9375 354 C-92.948125 354 -93.95875 354 -95 354 Z " fill="#E3D1AF" transform="translate(369,391)"/>
<path d="M0 0 C4.65296587 2.81342122 7.57480224 5.6965464 11 10 C11.763125 10.763125 12.52625 11.52625 13.3125 12.3125 C48.28983818 47.28983818 63.23559139 98.73170452 63.37957764 147.20373535 C63.35432233 160.21728727 63.00091093 173.12234244 61 186 C60.84015625 187.23234375 60.6803125 188.4646875 60.515625 189.734375 C55.7748202 220.61367115 41.51336874 249.87156468 22 274 C20.90558594 275.36705078 20.90558594 275.36705078 19.7890625 276.76171875 C11.92556339 286.48463733 3.81921195 296.02112057 -4.6875 305.1875 C-8.98140874 309.82121446 -12.98481381 314.62015131 -16.9453125 319.5390625 C-19.2625383 322.31444701 -21.73688004 324.8278324 -24.33203125 327.33984375 C-26.70553856 329.70223393 -28.8646571 332.23070352 -31.05078125 334.765625 C-33.33020694 337.37851376 -35.66212353 339.93930021 -38 342.5 C-40.82577384 345.59731967 -43.63218779 348.7040415 -46.375 351.875 C-50.02331715 356.07661643 -53.81379024 360.14268975 -57.59716797 364.22216797 C-60.27386147 367.1134664 -62.92303635 370.01880676 -65.5 373 C-69.05683038 377.11204293 -72.75583684 381.0876962 -76.45043945 385.07543945 C-81.69525807 390.74017162 -86.86457752 396.47111274 -91.9921875 402.2421875 C-94.31243625 404.84261723 -96.65154986 407.42508109 -99 410 C-99.93682617 411.03060547 -99.93682617 411.03060547 -100.89257812 412.08203125 C-103.02323372 414.41759583 -105.16656499 416.74097314 -107.3125 419.0625 C-108.00674072 419.82570557 -108.70098145 420.58891113 -109.41625977 421.37524414 C-110.4109729 422.44440063 -110.4109729 422.44440063 -111.42578125 423.53515625 C-112.31390503 424.50014038 -112.31390503 424.50014038 -113.2199707 425.48461914 C-115.18695495 427.15915915 -116.44097607 427.73295421 -119 428 C-120.89453125 426.62890625 -120.89453125 426.62890625 -122.8125 424.5625 C-123.43769531 423.90378906 -124.06289063 423.24507812 -124.70703125 422.56640625 C-125.96849111 421.15451676 -127.22448901 419.73742433 -128.45483398 418.29833984 C-133.50623646 412.41435413 -138.93012369 406.95583139 -144.4375 401.5 C-145.35982422 400.5821875 -146.28214844 399.664375 -147.23242188 398.71875 C-149.48599899 396.47684945 -151.74189075 394.237334 -154 392 C-153.27554688 391.28457031 -152.55109375 390.56914063 -151.8046875 389.83203125 C-146.15812617 384.13041987 -140.82258168 378.12110011 -135.5625 372.0625 C-132.13231424 368.11332633 -128.58996482 364.26977695 -125.04711914 360.42211914 C-122.49459547 357.6452363 -119.97024254 354.85027985 -117.5 352 C-114.56154919 348.60947983 -111.53843371 345.30071144 -108.5 342 C-103.69484786 336.77170016 -103.69484786 336.77170016 -98.9375 331.5 C-98.41027344 330.9121875 -97.88304687 330.324375 -97.33984375 329.71875 C-95.92073205 328.01870631 -95.92073205 328.01870631 -94.96875 325.90234375 C-94 324 -94 324 -91.5625 322.0625 C-88.92538022 320.19892405 -88.92538022 320.19892405 -87.6875 317.6875 C-86.05915644 315.0942121 -84.68924935 313.7570172 -82.375 311.8125 C-78.34710899 308.4082351 -74.89862893 304.68594517 -71.4140625 300.734375 C-68.83253578 297.8103156 -66.20388675 294.93228603 -63.5625 292.0625 C-62.63134101 291.0483326 -61.7003514 290.03400965 -60.76953125 289.01953125 C-60.3101416 288.5188916 -59.85075195 288.01825195 -59.37744141 287.50244141 C-53.78110302 281.39824672 -48.209898 275.27797675 -42.77734375 269.02734375 C-40.70640513 266.66510827 -38.60487152 264.33204147 -36.5 262 C-32.6248549 257.70151972 -28.79055453 253.37314949 -25 249 C-24.5575293 248.49452637 -24.11505859 247.98905273 -23.65917969 247.46826172 C-17.04027811 239.90349071 -10.70615603 232.29070905 -5 224 C-4.61102539 223.44231934 -4.22205078 222.88463867 -3.82128906 222.31005859 C4.89514985 209.77975239 12.3249822 197.22190878 16.9921875 182.6328125 C18 180 18 180 20 179 C20.76111735 176.47582566 21.41115796 174.00218312 22 171.4375 C22.33333333 170.04036458 22.66666667 168.64322917 23 167.24609375 C23.16258301 166.5485498 23.32516602 165.85100586 23.49267578 165.13232422 C24.00773049 162.96750815 24.56045807 160.81458571 25.1171875 158.66015625 C25.8621632 155.57147381 26.1965134 153.1442144 26 150 C26.66 150 27.32 150 28 150 C30.38124509 130.2333539 31.87171813 110.76356805 30.0625 90.875 C29.97548828 89.86824219 29.88847656 88.86148438 29.79882812 87.82421875 C29.6257027 85.84161205 29.44700649 83.85948234 29.26220703 81.87792969 C29.08586717 79.9424601 28.92564966 78.00546067 28.78076172 76.06738281 C28.70744629 75.16084961 28.63413086 74.25431641 28.55859375 73.3203125 C28.46856079 72.10625732 28.46856079 72.10625732 28.37670898 70.86767578 C28.25239502 70.25134277 28.12808105 69.63500977 28 69 C27.34 68.67 26.68 68.34 26 68 C25.4375 65.7421875 25.4375 65.7421875 25 62.875 C23.90772245 56.3324483 23.90772245 56.3324483 22 50 C21.01 49.67 20.02 49.34 19 49 C19.23589844 48.35804688 19.47179687 47.71609375 19.71484375 47.0546875 C20.1389219 42.51182291 18.3902098 39.22831523 16.5625 35.125 C16.19995117 34.2894458 15.83740234 33.4538916 15.46386719 32.59301758 C11.55388697 23.72977726 7.35977796 14.76360127 1.765625 6.83203125 C0 4 0 4 0 0 Z " fill="#E3D1AF" transform="translate(774,197)"/>
<path d="M0 0 C0 0.99 0 1.98 0 3 C-1 4 -2 5 -3 6 C-3.495 6.99 -3.99 7.98 -4.5 9 C-9.28977483 17.69528355 -18.51469098 24.71577208 -26 31 C-26 28 -26 28 -24.49609375 26.23828125 C-23.81675781 25.60277344 -23.13742187 24.96726562 -22.4375 24.3125 C-19.10510244 21.10244571 -16.02284167 17.80272288 -13.0078125 14.296875 C-8.76747018 9.44605538 -4.36624293 4.7373341 0 0 Z " fill="#C6AF85" transform="translate(364,343)"/>
<path d="M0 0 C2.26376188 2.26376188 2.83397949 3.87263237 3.91015625 6.8671875 C4.26013672 7.83527344 4.61011719 8.80335938 4.97070312 9.80078125 C5.33099609 10.81527344 5.69128906 11.82976563 6.0625 12.875 C6.60874023 14.38513672 6.60874023 14.38513672 7.16601562 15.92578125 C10.08636716 24.0552626 10.08636716 24.0552626 11 28 C11.66 28 12.32 28 13 28 C13.69670416 29.78810766 14.38211189 31.58062052 15.0625 33.375 C15.44535156 34.37273438 15.82820313 35.37046875 16.22265625 36.3984375 C17 39 17 39 16 41 C14.515 40.505 14.515 40.505 13 40 C12.87625 38.515 12.87625 38.515 12.75 37 C12.00908485 31.72769074 9.77164905 26.77164905 6 23 C6.33 22.01 6.66 21.02 7 20 C6.34 19.67 5.68 19.34 5 19 C4.1484375 16.71484375 4.1484375 16.71484375 3.375 13.9375 C3.11460937 13.01839844 2.85421875 12.09929688 2.5859375 11.15234375 C2.39257812 10.44207031 2.19921875 9.73179687 2 9 C1.34 9 0.68 9 0 9 C-1.125 5.25 -1.125 5.25 0 3 C0 2.01 0 1.02 0 0 Z " fill="#C1AA7F" transform="translate(163,734)"/>
<path d="M0 0 C0 4.18883702 -2.32599097 5.9308428 -5.0625 8.8125 C-5.56112549 9.34713867 -6.05975098 9.88177734 -6.57348633 10.43261719 C-10.16903995 14.24233696 -13.9057971 17.72463768 -18 21 C-16.58261511 17.74792908 -14.87473588 15.68638933 -12.3125 13.25 C-8.79995896 9.83360516 -5.53976348 6.28204815 -2.34765625 2.56640625 C-1.59150381 1.68751602 -0.81982149 0.81982149 0 0 Z " fill="#C4AE85" transform="translate(737,538)"/>
<path d="M0 0 C0 4.33174693 -2.65822583 6.22353653 -5.5 9.1875 C-6.28697266 10.02571289 -6.28697266 10.02571289 -7.08984375 10.88085938 C-8.38661613 12.26015364 -9.69246259 13.63090644 -11 15 C-11 12 -11 12 -9.125 10.0625 C-8.42375 9.381875 -7.7225 8.70125 -7 8 C-6.690625 7.34 -6.38125 6.68 -6.0625 6 C-4.59922682 3.24560342 -2.48201319 1.82885182 0 0 Z " fill="#D1BB92" transform="translate(279,438)"/>
<path d="M0 0 C2.12574678 3.5429113 2.47433223 6.94484863 3 11 C3.33 11.66 3.66 12.32 4 13 C3.9129796 14.71233688 3.75902838 16.42175406 3.5625 18.125 C3.46066406 19.03507812 3.35882812 19.94515625 3.25390625 20.8828125 C3.17011719 21.58148438 3.08632813 22.28015625 3 23 C2.67 23 2.34 23 2 23 C1.66227261 20.29215006 1.32969313 17.58383004 1 14.875 C0.90460937 14.11445313 0.80921875 13.35390625 0.7109375 12.5703125 C0.20169812 8.35090048 -0.10888068 4.25995656 0 0 Z " fill="#B9A27A" transform="translate(868,304)"/>
<path d="M0 0 C0 3.6987636 -0.84352062 4.35773852 -3.25 7.0625 C-4.15492188 8.10083984 -4.15492188 8.10083984 -5.078125 9.16015625 C-6.97018869 10.97146113 -8.60605599 11.9778071 -11 13 C-10.62488281 12.56429688 -10.24976563 12.12859375 -9.86328125 11.6796875 C-6.54140223 7.81392401 -3.25357073 3.92342352 0 0 Z " fill="#D4BE94" transform="translate(332,380)"/>
<path d="M0 0 C0.33 0.99 0.66 1.98 1 3 C-0.62255228 4.48185125 -2.24811888 5.96040256 -3.875 7.4375 C-5.23238281 8.67306641 -5.23238281 8.67306641 -6.6171875 9.93359375 C-9 12 -9 12 -11 13 C-9.46356148 9.31930113 -7.21849055 7.01224796 -4.375 4.25 C-3.55773437 3.45078125 -2.74046875 2.6515625 -1.8984375 1.828125 C-0.95871094 0.92320312 -0.95871094 0.92320312 0 0 Z " fill="#C0A97F" transform="translate(480,214)"/>
<path d="M0 0 C3.72114571 2.31537955 6.61229661 4.28579473 9 8 C5.59687262 6.94124926 2.98646769 5.99097846 0 4 C0 2.68 0 1.36 0 0 Z " fill="#E7D3AF" transform="translate(774,197)"/>
<path d="M0 0 C2.66605569 3.55474092 3.41364439 4.70213988 4.1875 8.75 C4.34605469 9.54921875 4.50460938 10.3484375 4.66796875 11.171875 C4.83232422 12.07679688 4.83232422 12.07679688 5 13 C3.68 12.67 2.36 12.34 1 12 C0.67 8.04 0.34 4.08 0 0 Z " fill="#C7AF85" transform="translate(175,762)"/>
<path d="M0 0 C0.33 0.99 0.66 1.98 1 3 C0.67 3.66 0.34 4.32 0 5 C-0.66 5 -1.32 5 -2 5 C-2.268125 5.61875 -2.53625 6.2375 -2.8125 6.875 C-4 9 -4 9 -7 11 C-5.07469586 7.00129139 -3.15703281 3.15703281 0 0 Z " fill="#C6AF85" transform="translate(706,619)"/>
<path d="M0 0 C0.33 0.99 0.66 1.98 1 3 C-3.455 6.96 -3.455 6.96 -8 11 C-8 8 -8 8 -6.25 5.95703125 C-5.5075 5.24933594 -4.765 4.54164063 -4 3.8125 C-2.88625 2.73935547 -2.88625 2.73935547 -1.75 1.64453125 C-1.1725 1.10183594 -0.595 0.55914062 0 0 Z " fill="#C0A97E" transform="translate(318,394)"/>
<path d="M0 0 C0 0.33 0 0.66 0 1 C-5.28 0.67 -10.56 0.34 -16 0 C-16 -0.33 -16 -0.66 -16 -1 C-10.03654233 -2.0006709 -5.71271093 -2.0662997 0 0 Z " fill="#BDA67B" transform="translate(696,122)"/>
<path d="M0 0 C3.11133103 3.11133103 3 6.73118282 3 11 C-1.06153846 5.70769231 -1.06153846 5.70769231 -0.75 2.125 C-0.5025 1.42375 -0.255 0.7225 0 0 Z " fill="#DEC9A4" transform="translate(270,748)"/>
<path d="M0 0 C0.33 0.99 0.66 1.98 1 3 C-1.64 5.31 -4.28 7.62 -7 10 C-7 7 -7 7 -5.46875 5.17578125 C-4.8190625 4.56089844 -4.169375 3.94601563 -3.5 3.3125 C-2.8503125 2.68988281 -2.200625 2.06726563 -1.53125 1.42578125 C-0.77328125 0.72001953 -0.77328125 0.72001953 0 0 Z " fill="#C0A97E" transform="translate(468,227)"/>
<path d="M0 0 C4.03174806 0.27489191 5.56894631 0.53491576 8.375 3.5625 C8.91125 4.366875 9.4475 5.17125 10 6 C6.40992874 4.66654496 3.20429093 3.1056769 0 1 C0 0.67 0 0.34 0 0 Z " fill="#C4AC81" transform="translate(262,862)"/>
<path d="M0 0 C0.33 0 0.66 0 1 0 C1 1.65 1 3.3 1 5 C0.67 5 0.34 5 0 5 C0 3.35 0 1.7 0 0 Z " fill="#CCB78B" transform="translate(153,698)"/>
<path d="M0 0 C0.33 0 0.66 0 1 0 C1 1.65 1 3.3 1 5 C0.67 5 0.34 5 0 5 C0 3.35 0 1.7 0 0 Z " fill="#E4D0AC" transform="translate(802,278)"/>
<path d="M0 0 C1.65 0 3.3 0 5 0 C5 0.33 5 0.66 5 1 C3.35 1 1.7 1 0 1 C0 0.67 0 0.34 0 0 Z " fill="#D0BB90" transform="translate(633,157)"/>
<path d="M0 0 C4 1 4 1 4 1 Z " fill="#CEB58B" transform="translate(389,895)"/>
<path d="M0 0 C0.99 0.33 1.98 0.66 3 1 C2.01 1 1.02 1 0 1 C0 0.67 0 0.34 0 0 Z " fill="#CAB488" transform="translate(209,821)"/>
<path d="M0 0 C1 4 1 4 1 4 Z " fill="#E8D4B0" transform="translate(257,675)"/>
<path d="M0 0 C0.99 0.495 0.99 0.495 2 1 C1.67 1.66 1.34 2.32 1 3 C0.67 2.01 0.34 1.02 0 0 Z " fill="#E8D4AF" transform="translate(281,596)"/>
<path d="M0 0 C0.66 0.66 1.32 1.32 2 2 C1.01 2.495 1.01 2.495 0 3 C0 2.01 0 1.02 0 0 Z " fill="#CBB58C" transform="translate(336,369)"/>
<path d="M0 0 C4 1 4 1 4 1 Z " fill="#D1BC91" transform="translate(689,158)"/>
<path d="M0 0 C3 1 3 1 3 1 Z " fill="#CAB589" transform="translate(400,894)"/>
<path d="M0 0 C3 1 3 1 3 1 Z " fill="#CAB389" transform="translate(304,885)"/>
<path d="M0 0 C3 1 3 1 3 1 Z " fill="#CBB388" transform="translate(256,861)"/>
<path d="M0 0 C0.66 0.66 1.32 1.32 2 2 C1.34 2 0.68 2 0 2 C0 1.34 0 0.68 0 0 Z " fill="#CAB287" transform="translate(225,836)"/>
<path d="M0 0 C0.66 0 1.32 0 2 0 C1.67 0.66 1.34 1.32 1 2 C0.67 1.34 0.34 0.68 0 0 Z " fill="#C9B389" transform="translate(217,829)"/>
<path d="M0 0 C0.33 0.66 0.66 1.32 1 2 C0.34 1.67 -0.32 1.34 -1 1 C-0.67 0.67 -0.34 0.34 0 0 Z " fill="#E6D3AE" transform="translate(297,765)"/>
<path d="M0 0 C0.99 0.495 0.99 0.495 2 1 C1.01 1.495 1.01 1.495 0 2 C0 1.34 0 0.68 0 0 Z " fill="#E6D1AD" transform="translate(279,747)"/>
<path d="M0 0 C0.66 0.66 1.32 1.32 2 2 C1.34 2 0.68 2 0 2 C0 1.34 0 0.68 0 0 Z " fill="#E8D2AD" transform="translate(253,645)"/>
<path d="M0 0 C3 1 3 1 3 1 Z " fill="#D1BC91" transform="translate(627,158)"/>
<path d="M0 0 C3 1 3 1 3 1 Z " fill="#D2BB90" transform="translate(682,157)"/>
<path d="M0 0 C2 1 2 1 2 1 Z " fill="#CBB389" transform="translate(337,893)"/>
<path d="M0 0 C2 1 2 1 2 1 Z " fill="#C9B287" transform="translate(415,891)"/>
<path d="M0 0 C2 1 2 1 2 1 Z " fill="#C7B287" transform="translate(308,886)"/>
<path d="M0 0 C2 1 2 1 2 1 Z " fill="#CAB388" transform="translate(436,885)"/>
<path d="" fill="#C9B28A" transform="translate(0,0)"/>
<path d="" fill="#C8B187" transform="translate(0,0)"/>
<path d="" fill="#C8B285" transform="translate(0,0)"/>
<path d="" fill="#C9B388" transform="translate(0,0)"/>
<path d="" fill="#CCB58B" transform="translate(0,0)"/>
<path d="M0 0 C2 1 2 1 2 1 Z " fill="#C9B386" transform="translate(172,766)"/>
<path d="" fill="#E7D2AF" transform="translate(0,0)"/>
<path d="" fill="#E7D3AF" transform="translate(0,0)"/>
<path d="" fill="#E7D5B1" transform="translate(0,0)"/>
<path d="" fill="#CBB58B" transform="translate(0,0)"/>
<path d="" fill="#CCB48A" transform="translate(0,0)"/>
<path d="" fill="#E3CFAB" transform="translate(0,0)"/>
<path d="" fill="#CEB78E" transform="translate(0,0)"/>
<path d="M0 0 C2 1 2 1 2 1 Z " fill="#CFB88E" transform="translate(201,520)"/>
<path d="" fill="#CBB38A" transform="translate(0,0)"/>
<path d="" fill="#CEB78D" transform="translate(0,0)"/>
<path d="" fill="#CDB88E" transform="translate(0,0)"/>
<path d="M0 0 C2 1 2 1 2 1 Z " fill="#CCB68D" transform="translate(345,360)"/>
<path d="" fill="#CAB48A" transform="translate(0,0)"/>
<path d="" fill="#E5CFAC" transform="translate(0,0)"/>
<path d="" fill="#CAB486" transform="translate(0,0)"/>
<path d="" fill="#E4CFAB" transform="translate(0,0)"/>
<path d="" fill="#D7C29B" transform="translate(0,0)"/>
<path d="M0 0 C2 1 2 1 2 1 Z " fill="#CCB58B" transform="translate(513,176)"/>
<path d="M0 0 C2 1 2 1 2 1 Z " fill="#D1BB8F" transform="translate(596,167)"/>
<path d="M0 0 C2 1 2 1 2 1 Z " fill="#D0BB91" transform="translate(601,165)"/>
<path d="M0 0 C2 1 2 1 2 1 Z " fill="#CBB588" transform="translate(531,161)"/>
<path d="M0 0 C2 1 2 1 2 1 Z " fill="#D1BC92" transform="translate(696,159)"/>
<path d="M0 0 C2 1 2 1 2 1 Z " fill="#D1BD90" transform="translate(623,159)"/>
<path d="M0 0 C2 1 2 1 2 1 Z " fill="#D1BB91" transform="translate(673,156)"/>
<path d="M0 0 C2 1 2 1 2 1 Z " fill="#CFBA8F" transform="translate(644,156)"/>
<path d="M0 0 C2 1 2 1 2 1 Z " fill="#CAB489" transform="translate(548,149)"/>
<path d="M0 0 C2 1 2 1 2 1 Z " fill="#C9B587" transform="translate(705,122)"/>
<path d="" fill="#504423" transform="translate(0,0)"/>
<path d="" fill="#534425" transform="translate(0,0)"/>
<path d="" fill="#675633" transform="translate(0,0)"/>
<path d="" fill="#4E4122" transform="translate(0,0)"/>
<path d="" fill="#7B6A43" transform="translate(0,0)"/>
<path d="" fill="#4D4121" transform="translate(0,0)"/>
<path d="" fill="#4B3F20" transform="translate(0,0)"/>
<path d="" fill="#4B4020" transform="translate(0,0)"/>
<path d="" fill="#4D4120" transform="translate(0,0)"/>
<path d="" fill="#554728" transform="translate(0,0)"/>
<path d="" fill="#64542F" transform="translate(0,0)"/>
<path d="" fill="#7B6A44" transform="translate(0,0)"/>
<path d="" fill="#4B4020" transform="translate(0,0)"/>
<path d="" fill="#4C3E21" transform="translate(0,0)"/>
<path d="" fill="#4D4221" transform="translate(0,0)"/>
<path d="" fill="#564928" transform="translate(0,0)"/>
<path d="" fill="#A59166" transform="translate(0,0)"/>
<path d="" fill="#4C4020" transform="translate(0,0)"/>
<path d="" fill="#4B4020" transform="translate(0,0)"/>
<path d="" fill="#4F4122" transform="translate(0,0)"/>
<path d="" fill="#544526" transform="translate(0,0)"/>
<path d="" fill="#594B28" transform="translate(0,0)"/>
<path d="" fill="#5C4F2C" transform="translate(0,0)"/>
<path d="" fill="#76663F" transform="translate(0,0)"/>
<path d="" fill="#CCB589" transform="translate(0,0)"/>
<path d="" fill="#CAB487" transform="translate(0,0)"/>
<path d="" fill="#CCB68B" transform="translate(0,0)"/>
<path d="" fill="#CBB486" transform="translate(0,0)"/>
<path d="" fill="#C8B187" transform="translate(0,0)"/>
<path d="" fill="#CDB488" transform="translate(0,0)"/>
<path d="" fill="#CAB487" transform="translate(0,0)"/>
<path d="" fill="#CBB588" transform="translate(0,0)"/>
<path d="" fill="#CCB78A" transform="translate(0,0)"/>
<path d="" fill="#CAB288" transform="translate(0,0)"/>
<path d="" fill="#4D4122" transform="translate(0,0)"/>
<path d="" fill="#CBB288" transform="translate(0,0)"/>
<path d="" fill="#CAB488" transform="translate(0,0)"/>
<path d="" fill="#C6B083" transform="translate(0,0)"/>
<path d="" fill="#CBB288" transform="translate(0,0)"/>
<path d="" fill="#C6B184" transform="translate(0,0)"/>
<path d="" fill="#CAB389" transform="translate(0,0)"/>
<path d="" fill="#C9B188" transform="translate(0,0)"/>
<path d="" fill="#C9B387" transform="translate(0,0)"/>
<path d="" fill="#C5B085" transform="translate(0,0)"/>
<path d="" fill="#C9B489" transform="translate(0,0)"/>
<path d="" fill="#C8B486" transform="translate(0,0)"/>
<path d="" fill="#C9B186" transform="translate(0,0)"/>
<path d="" fill="#C9B187" transform="translate(0,0)"/>
<path d="" fill="#CBB689" transform="translate(0,0)"/>
<path d="" fill="#CBB58A" transform="translate(0,0)"/>
<path d="" fill="#C8B285" transform="translate(0,0)"/>
<path d="" fill="#C9B289" transform="translate(0,0)"/>
<path d="" fill="#7B6B45" transform="translate(0,0)"/>
<path d="" fill="#C7B084" transform="translate(0,0)"/>
<path d="" fill="#70613A" transform="translate(0,0)"/>
<path d="" fill="#AD996E" transform="translate(0,0)"/>
<path d="" fill="#C7B387" transform="translate(0,0)"/>
<path d="" fill="#C9B487" transform="translate(0,0)"/>
<path d="" fill="#C9B688" transform="translate(0,0)"/>
<path d="" fill="#CDB38A" transform="translate(0,0)"/>
<path d="" fill="#C9B287" transform="translate(0,0)"/>
<path d="" fill="#C7B189" transform="translate(0,0)"/>
<path d="" fill="#CAB388" transform="translate(0,0)"/>
<path d="" fill="#C9B489" transform="translate(0,0)"/>
<path d="" fill="#C8B387" transform="translate(0,0)"/>
<path d="" fill="#CAB58A" transform="translate(0,0)"/>
<path d="" fill="#E5D1AC" transform="translate(0,0)"/>
<path d="" fill="#E6D4AD" transform="translate(0,0)"/>
<path d="" fill="#E6D3AD" transform="translate(0,0)"/>
<path d="" fill="#E8D4B0" transform="translate(0,0)"/>
<path d="" fill="#E6D2AF" transform="translate(0,0)"/>
<path d="" fill="#E6D2AF" transform="translate(0,0)"/>
<path d="" fill="#CAB489" transform="translate(0,0)"/>
<path d="" fill="#E6D3AF" transform="translate(0,0)"/>
<path d="" fill="#CAB388" transform="translate(0,0)"/>
<path d="" fill="#E5D4B0" transform="translate(0,0)"/>
<path d="" fill="#E4D2AD" transform="translate(0,0)"/>
<path d="" fill="#CDB48B" transform="translate(0,0)"/>
<path d="" fill="#E8D3AE" transform="translate(0,0)"/>
<path d="" fill="#C8B188" transform="translate(0,0)"/>
<path d="" fill="#E7D3AD" transform="translate(0,0)"/>
<path d="" fill="#E7D2AB" transform="translate(0,0)"/>
<path d="" fill="#E7D3AF" transform="translate(0,0)"/>
<path d="" fill="#C8B085" transform="translate(0,0)"/>
<path d="" fill="#CBB388" transform="translate(0,0)"/>
<path d="" fill="#C9B388" transform="translate(0,0)"/>
<path d="" fill="#C9B388" transform="translate(0,0)"/>
<path d="" fill="#C8B387" transform="translate(0,0)"/>
<path d="" fill="#CDB68D" transform="translate(0,0)"/>
<path d="" fill="#CCB78C" transform="translate(0,0)"/>
<path d="" fill="#E9D5AF" transform="translate(0,0)"/>
<path d="" fill="#E7D3AE" transform="translate(0,0)"/>
<path d="" fill="#5E5130" transform="translate(0,0)"/>
<path d="" fill="#E9D5B2" transform="translate(0,0)"/>
<path d="" fill="#CBB58B" transform="translate(0,0)"/>
<path d="" fill="#E8D6B2" transform="translate(0,0)"/>
<path d="" fill="#E8D0AC" transform="translate(0,0)"/>
<path d="" fill="#E7D2AE" transform="translate(0,0)"/>
<path d="" fill="#C9B188" transform="translate(0,0)"/>
<path d="" fill="#E6D3AE" transform="translate(0,0)"/>
<path d="" fill="#E6D2AE" transform="translate(0,0)"/>
<path d="" fill="#E7D4AF" transform="translate(0,0)"/>
<path d="" fill="#E7D4B0" transform="translate(0,0)"/>
<path d="" fill="#E8D5AF" transform="translate(0,0)"/>
<path d="" fill="#CAB68B" transform="translate(0,0)"/>
<path d="" fill="#E6D4AD" transform="translate(0,0)"/>
<path d="" fill="#E8D4B1" transform="translate(0,0)"/>
<path d="" fill="#E8D3AE" transform="translate(0,0)"/>
<path d="" fill="#CBB68A" transform="translate(0,0)"/>
<path d="" fill="#E9D5AE" transform="translate(0,0)"/>
<path d="" fill="#CBB289" transform="translate(0,0)"/>
<path d="" fill="#E6D4AE" transform="translate(0,0)"/>
<path d="" fill="#CDB78E" transform="translate(0,0)"/>
<path d="" fill="#766640" transform="translate(0,0)"/>
<path d="" fill="#CBB78F" transform="translate(0,0)"/>
<path d="" fill="#635533" transform="translate(0,0)"/>
<path d="" fill="#E7D4AE" transform="translate(0,0)"/>
<path d="" fill="#CCB58A" transform="translate(0,0)"/>
<path d="" fill="#E9D5AF" transform="translate(0,0)"/>
<path d="" fill="#CBB48B" transform="translate(0,0)"/>
<path d="" fill="#E6D3AD" transform="translate(0,0)"/>
<path d="" fill="#CBB68C" transform="translate(0,0)"/>
<path d="" fill="#CFB88D" transform="translate(0,0)"/>
<path d="" fill="#E5D3AD" transform="translate(0,0)"/>
<path d="" fill="#E9D2AD" transform="translate(0,0)"/>
<path d="" fill="#E7D4AF" transform="translate(0,0)"/>
<path d="" fill="#D0B78B" transform="translate(0,0)"/>
<path d="" fill="#E3CEA8" transform="translate(0,0)"/>
<path d="" fill="#CCB58B" transform="translate(0,0)"/>
<path d="" fill="#E2CFA9" transform="translate(0,0)"/>
<path d="" fill="#D7C099" transform="translate(0,0)"/>
<path d="" fill="#D7C198" transform="translate(0,0)"/>
<path d="" fill="#E4D1AE" transform="translate(0,0)"/>
<path d="" fill="#E6D3AC" transform="translate(0,0)"/>
<path d="" fill="#E6D1AE" transform="translate(0,0)"/>
<path d="" fill="#E3D0AB" transform="translate(0,0)"/>
<path d="" fill="#E4CFAD" transform="translate(0,0)"/>
<path d="" fill="#E5D1AE" transform="translate(0,0)"/>
<path d="" fill="#D1BC92" transform="translate(0,0)"/>
<path d="" fill="#E1CEAA" transform="translate(0,0)"/>
<path d="" fill="#C9B288" transform="translate(0,0)"/>
<path d="" fill="#D2BC91" transform="translate(0,0)"/>
<path d="" fill="#CBB48C" transform="translate(0,0)"/>
<path d="" fill="#CEB789" transform="translate(0,0)"/>
<path d="" fill="#E6D0AE" transform="translate(0,0)"/>
<path d="" fill="#CDB589" transform="translate(0,0)"/>
<path d="" fill="#E3D2AB" transform="translate(0,0)"/>
<path d="" fill="#D1BD8F" transform="translate(0,0)"/>
<path d="" fill="#E4CEAB" transform="translate(0,0)"/>
<path d="" fill="#E2CFAA" transform="translate(0,0)"/>
<path d="" fill="#E4CFAB" transform="translate(0,0)"/>
<path d="" fill="#CFBA8F" transform="translate(0,0)"/>
<path d="" fill="#E5D0A9" transform="translate(0,0)"/>
<path d="" fill="#CBB68B" transform="translate(0,0)"/>
<path d="" fill="#E5D0AB" transform="translate(0,0)"/>
<path d="" fill="#CEB78F" transform="translate(0,0)"/>
<path d="" fill="#D0BA8E" transform="translate(0,0)"/>
<path d="" fill="#CBB68B" transform="translate(0,0)"/>
<path d="" fill="#CEBA8D" transform="translate(0,0)"/>
<path d="" fill="#CAB489" transform="translate(0,0)"/>
<path d="" fill="#E4D0AC" transform="translate(0,0)"/>
<path d="" fill="#CCB58C" transform="translate(0,0)"/>
<path d="" fill="#BAA57B" transform="translate(0,0)"/>
<path d="" fill="#E5CFAC" transform="translate(0,0)"/>
<path d="" fill="#E4D1AA" transform="translate(0,0)"/>
<path d="" fill="#D0BA8E" transform="translate(0,0)"/>
<path d="" fill="#D0BA8E" transform="translate(0,0)"/>
<path d="" fill="#E7D1AA" transform="translate(0,0)"/>
<path d="" fill="#CBB78C" transform="translate(0,0)"/>
<path d="" fill="#E5D0AB" transform="translate(0,0)"/>
<path d="" fill="#CFB78D" transform="translate(0,0)"/>
<path d="" fill="#E4CFAC" transform="translate(0,0)"/>
<path d="" fill="#E4CFAA" transform="translate(0,0)"/>
<path d="" fill="#E4CFAA" transform="translate(0,0)"/>
<path d="" fill="#D0B88D" transform="translate(0,0)"/>
<path d="" fill="#C7B288" transform="translate(0,0)"/>
<path d="" fill="#CCB388" transform="translate(0,0)"/>
<path d="" fill="#CFB98E" transform="translate(0,0)"/>
<path d="" fill="#CBB589" transform="translate(0,0)"/>
<path d="" fill="#CEB789" transform="translate(0,0)"/>
<path d="" fill="#CDB68D" transform="translate(0,0)"/>
<path d="" fill="#E3D0AB" transform="translate(0,0)"/>
<path d="" fill="#CEB78E" transform="translate(0,0)"/>
<path d="" fill="#CEB58A" transform="translate(0,0)"/>
<path d="" fill="#E5D1AB" transform="translate(0,0)"/>
<path d="" fill="#E5CFAC" transform="translate(0,0)"/>
<path d="" fill="#CEBA8D" transform="translate(0,0)"/>
<path d="" fill="#C7B286" transform="translate(0,0)"/>
<path d="" fill="#CDB68C" transform="translate(0,0)"/>
<path d="" fill="#CBB58A" transform="translate(0,0)"/>
<path d="" fill="#E8D5B0" transform="translate(0,0)"/>
<path d="" fill="#E7D2AF" transform="translate(0,0)"/>
<path d="" fill="#C9B487" transform="translate(0,0)"/>
<path d="" fill="#C9B488" transform="translate(0,0)"/>
<path d="" fill="#E4D0AB" transform="translate(0,0)"/>
<path d="" fill="#CFB88F" transform="translate(0,0)"/>
<path d="" fill="#CBB48A" transform="translate(0,0)"/>
<path d="" fill="#CBB58A" transform="translate(0,0)"/>
<path d="" fill="#CBB589" transform="translate(0,0)"/>
<path d="" fill="#CCB58A" transform="translate(0,0)"/>
<path d="" fill="#E6D0AD" transform="translate(0,0)"/>
<path d="" fill="#CCB68A" transform="translate(0,0)"/>
<path d="" fill="#CBB68B" transform="translate(0,0)"/>
<path d="" fill="#CFBA8F" transform="translate(0,0)"/>
<path d="" fill="#CAB48A" transform="translate(0,0)"/>
<path d="" fill="#E7D4AF" transform="translate(0,0)"/>
<path d="" fill="#CAB78C" transform="translate(0,0)"/>
<path d="" fill="#E6D3AE" transform="translate(0,0)"/>
<path d="" fill="#CEB78D" transform="translate(0,0)"/>
<path d="" fill="#87784F" transform="translate(0,0)"/>
<path d="" fill="#C4AF84" transform="translate(0,0)"/>
<path d="" fill="#CBB389" transform="translate(0,0)"/>
<path d="" fill="#CAB589" transform="translate(0,0)"/>
<path d="" fill="#CFB88B" transform="translate(0,0)"/>
<path d="" fill="#E6D1AD" transform="translate(0,0)"/>
<path d="" fill="#CBB58A" transform="translate(0,0)"/>
<path d="" fill="#CBB58A" transform="translate(0,0)"/>
<path d="" fill="#C9B187" transform="translate(0,0)"/>
<path d="" fill="#CDB58C" transform="translate(0,0)"/>
<path d="" fill="#A08C61" transform="translate(0,0)"/>
<path d="" fill="#E7D1AD" transform="translate(0,0)"/>
<path d="" fill="#CAB488" transform="translate(0,0)"/>
<path d="" fill="#CCB688" transform="translate(0,0)"/>
<path d="" fill="#E5D0AB" transform="translate(0,0)"/>
<path d="" fill="#CCB48B" transform="translate(0,0)"/>
<path d="" fill="#CCB389" transform="translate(0,0)"/>
<path d="" fill="#E5D2AC" transform="translate(0,0)"/>
<path d="" fill="#CCB68A" transform="translate(0,0)"/>
<path d="" fill="#CAB48B" transform="translate(0,0)"/>
<path d="" fill="#E5D1AB" transform="translate(0,0)"/>
<path d="" fill="#CDB68C" transform="translate(0,0)"/>
<path d="" fill="#CCB58A" transform="translate(0,0)"/>
<path d="" fill="#E5D1AE" transform="translate(0,0)"/>
<path d="" fill="#CCB88C" transform="translate(0,0)"/>
<path d="" fill="#CBB58D" transform="translate(0,0)"/>
<path d="" fill="#CAB589" transform="translate(0,0)"/>
<path d="" fill="#CBB589" transform="translate(0,0)"/>
<path d="" fill="#E3D1AC" transform="translate(0,0)"/>
<path d="" fill="#CDB78C" transform="translate(0,0)"/>
<path d="" fill="#655634" transform="translate(0,0)"/>
<path d="" fill="#CEB68C" transform="translate(0,0)"/>
<path d="" fill="#CCB48B" transform="translate(0,0)"/>
<path d="" fill="#CEB78E" transform="translate(0,0)"/>
<path d="" fill="#CCB588" transform="translate(0,0)"/>
<path d="" fill="#CAB38A" transform="translate(0,0)"/>
<path d="" fill="#CBB38A" transform="translate(0,0)"/>
<path d="" fill="#CDB68D" transform="translate(0,0)"/>
<path d="" fill="#CDB488" transform="translate(0,0)"/>
<path d="" fill="#CBB387" transform="translate(0,0)"/>
<path d="" fill="#E3D1AC" transform="translate(0,0)"/>
<path d="" fill="#CBB38A" transform="translate(0,0)"/>
<path d="" fill="#E3CEAA" transform="translate(0,0)"/>
<path d="" fill="#CBB588" transform="translate(0,0)"/>
<path d="" fill="#675834" transform="translate(0,0)"/>
<path d="" fill="#CDB48A" transform="translate(0,0)"/>
<path d="" fill="#CBB589" transform="translate(0,0)"/>
<path d="" fill="#CCB689" transform="translate(0,0)"/>
<path d="" fill="#CCB38B" transform="translate(0,0)"/>
<path d="" fill="#E2CEA9" transform="translate(0,0)"/>
<path d="" fill="#E0CBA6" transform="translate(0,0)"/>
<path d="" fill="#E0CEA8" transform="translate(0,0)"/>
<path d="" fill="#E1CDA8" transform="translate(0,0)"/>
<path d="" fill="#CDB78B" transform="translate(0,0)"/>
<path d="" fill="#CAB488" transform="translate(0,0)"/>
<path d="" fill="#C8B588" transform="translate(0,0)"/>
<path d="" fill="#5E512F" transform="translate(0,0)"/>
<path d="" fill="#CCB68B" transform="translate(0,0)"/>
<path d="" fill="#D3BC90" transform="translate(0,0)"/>
<path d="" fill="#5B4F2E" transform="translate(0,0)"/>
<path d="" fill="#D7C49D" transform="translate(0,0)"/>
<path d="" fill="#C8B388" transform="translate(0,0)"/>
<path d="" fill="#CDB88F" transform="translate(0,0)"/>
<path d="" fill="#CBB487" transform="translate(0,0)"/>
<path d="" fill="#D7C198" transform="translate(0,0)"/>
<path d="" fill="#CCB88D" transform="translate(0,0)"/>
<path d="" fill="#D2BE95" transform="translate(0,0)"/>
<path d="" fill="#D3BC8E" transform="translate(0,0)"/>
<path d="" fill="#CEBB8E" transform="translate(0,0)"/>
<path d="" fill="#D4BE93" transform="translate(0,0)"/>
<path d="" fill="#D4BD94" transform="translate(0,0)"/>
<path d="" fill="#CFB98E" transform="translate(0,0)"/>
<path d="" fill="#D4BF94" transform="translate(0,0)"/>
<path d="" fill="#D0B98E" transform="translate(0,0)"/>
<path d="" fill="#D2BD94" transform="translate(0,0)"/>
<path d="" fill="#CBB68B" transform="translate(0,0)"/>
<path d="" fill="#CFB98E" transform="translate(0,0)"/>
<path d="" fill="#CAB689" transform="translate(0,0)"/>
<path d="" fill="#CCB48A" transform="translate(0,0)"/>
<path d="" fill="#D2BE93" transform="translate(0,0)"/>
<path d="" fill="#5F512E" transform="translate(0,0)"/>
<path d="" fill="#D1BC93" transform="translate(0,0)"/>
<path d="" fill="#D3BA91" transform="translate(0,0)"/>
<path d="" fill="#CDB48A" transform="translate(0,0)"/>
<path d="" fill="#CFBA91" transform="translate(0,0)"/>
<path d="" fill="#D0BC90" transform="translate(0,0)"/>
<path d="" fill="#D1BA91" transform="translate(0,0)"/>
<path d="" fill="#D0BA91" transform="translate(0,0)"/>
<path d="" fill="#D2BB90" transform="translate(0,0)"/>
<path d="" fill="#CBB489" transform="translate(0,0)"/>
<path d="" fill="#C9B386" transform="translate(0,0)"/>
<path d="" fill="#CEB489" transform="translate(0,0)"/>
<path d="" fill="#CAB587" transform="translate(0,0)"/>
<path d="" fill="#CAB68B" transform="translate(0,0)"/>
<path d="" fill="#695A36" transform="translate(0,0)"/>
<path d="" fill="#CAB688" transform="translate(0,0)"/>
<path d="" fill="#CCB689" transform="translate(0,0)"/>
<path d="" fill="#CAB58C" transform="translate(0,0)"/>
<path d="" fill="#CEB48A" transform="translate(0,0)"/>
<path d="" fill="#CBB48A" transform="translate(0,0)"/>
<path d="" fill="#CBB689" transform="translate(0,0)"/>
<path d="" fill="#CBB68A" transform="translate(0,0)"/>
<path d="" fill="#CAB489" transform="translate(0,0)"/>
<path d="" fill="#CBB58A" transform="translate(0,0)"/>
<path d="" fill="#CCB78C" transform="translate(0,0)"/>
<path d="" fill="#645632" transform="translate(0,0)"/>
<path d="" fill="#574929" transform="translate(0,0)"/>
<path d="" fill="#685A34" transform="translate(0,0)"/>
<path d="" fill="#625330" transform="translate(0,0)"/>
<path d="" fill="#5B4D2C" transform="translate(0,0)"/>
<path d="" fill="#564928" transform="translate(0,0)"/>
<path d="" fill="#665633" transform="translate(0,0)"/>
<path d="" fill="#796740" transform="translate(0,0)"/>
</svg>
